<svg xmlns="http://www.w3.org/2000/svg"  viewBox="0 0 40 40" width="40px" height="40px"><path fill="#dff0fe" d="M21.389,38.5c-3.298,0-5.612-1.516-6.88-4.505c-0.65-1.535-1.009-3.462-1.009-5.428V16.5h-5v-4.184 c5.116-2.397,7.807-6.033,7.99-10.805L21.503,1.5l-0.003,9h8v6h-8v11.883c-0.002,0.449,0.073,1.978,1.147,3.057 c0.7,0.704,1.664,1.06,2.866,1.06c2.228,0,4.707-0.877,5.987-1.4L31.5,35.948C30.608,36.543,27.223,38.5,21.389,38.5z"/><path fill="#4788c7" d="M21,2v8v1h1h7v5h-7h-1v1v11.386c-0.003,0.492,0.083,2.19,1.293,3.407 C23.09,32.594,24.174,33,25.514,33c1.955,0,4.082-0.645,5.486-1.168v3.843C29.868,36.374,26.667,38,21.389,38 c-3.078,0-5.238-1.413-6.42-4.2C14.344,32.326,14,30.467,14,28.563V17v-1h-1H9v-3.368c6.068-2.956,7.712-7.31,7.963-10.628 C18.069,2.002,19.877,2.001,21,2 M21.504,1L21.504,1c-1.135,0.001-3.904,0.002-5.023,0.004c-0.27,0-0.48,0.219-0.49,0.489 c-0.263,6.843-6.038,9.591-7.71,10.374C8.106,11.949,8,12.122,8,12.316V16.5C8,16.776,8.224,17,8.5,17H13v11.563 C13,29.631,12.991,39,21.389,39c6.016,0,9.524-2.059,10.396-2.641C31.922,36.267,32,36.113,32,35.948V31.1 c0-0.288-0.234-0.501-0.498-0.501c-0.063,0-0.127,0.012-0.19,0.038C30.142,31.115,27.681,32,25.514,32 C21.929,32,22,28.529,22,28.383V17h7.5c0.276,0,0.5-0.224,0.5-0.5v-6c0-0.276-0.224-0.5-0.5-0.5H22V1.5C22,1.224,21.78,1,21.504,1 L21.504,1z"/></svg>